<svg viewBox="0 0 251.075 218.539" width="251.075" height="218.539">
  <defs>
    <linearGradient id="gradient-1" x1="0%" y1="0%" x2="100%" y2="100%">
      <stop offset="0.04" stop-color="#0ff"></stop>
      <stop offset="1" stop-color="#080080"></stop>
    </linearGradient>
    <linearGradient id="gradient-2" x1="0%" y1="0%" x2="100%" y2="100%">
      <stop offset="0" stop-color="#0ff"></stop>
      <stop offset="0.95" stop-color="#040080"></stop>
    </linearGradient>
  </defs>
  <path d="M -46.769 -93.668 L -46.365 -93.668 L -46.365 -93.077 L -46.769 -93.077 L -46.769 -93.668 Z M -46.26 -93.935 L -45.854 -93.935 L -45.854 -93.077 L -46.26 -93.077 L -46.26 -93.935 Z M -41.341 -89.725 L -40.938 -89.725 L -40.938 -89.135 L -41.341 -89.135 L -41.341 -89.725 Z M -40.833 -89.993 L -40.428 -89.993 L -40.428 -89.135 L -40.833 -89.135 L -40.833 -89.993 Z M -40.331 -90.303 L -39.927 -90.303 L -39.927 -89.135 L -40.331 -89.135 L -40.331 -90.303 Z M -41.852 -89.554 L -41.448 -89.554 L -41.448 -89.135 L -41.852 -89.135 L -41.852 -89.554 Z" fill="#ccf2ff" style="" transform="matrix(1, 0, 0, 1, 148.407765, 271.620766)"></path>
  <path d="M 77.69 -123.343 C 47.53 -120.516 22.413 -109.843 2.043 -91.05 C -16.251 -74.174 -28.314 -51.824 -31.676 -28.379 C -33.16 -18.071 -32.27 1.177 -29.896 10.208 L -28.116 17.051 L 35.169 17.323 C 95.39 17.506 98.455 17.597 100.335 19.24 C 109.135 26.628 122.386 24.896 127.428 15.682 C 130.098 10.756 130.198 7.289 127.726 2.363 C 124.858 -3.476 120.606 -5.756 112.695 -5.756 C 106.663 -5.756 105.675 -5.482 102.115 -2.836 L 98.06 0.174 L 75.02 0.174 C 62.363 0.174 49.212 -0.192 45.849 -0.647 C 22.018 -3.84 7.284 -24.183 13.414 -45.712 C 16.678 -57.48 25.083 -65.69 38.531 -70.342 C 43.97 -72.258 45.652 -72.258 115.068 -72.623 L 185.969 -73.626 C 185.969 -73.992 183.793 -77.001 181.123 -80.195 C 163.72 -101.45 137.119 -116.684 109.333 -121.428 C 100.829 -122.888 84.118 -123.891 77.69 -123.343 Z" fill="url(#gradient-1)" fill-opacity=".9" style="" transform="matrix(1, 0, 0, 1, 148.407765, 271.620766)"></path>
  <path d="M 54.946 -50.181 C 42.685 -46.534 40.806 -29.93 51.88 -23.544 C 57.814 -20.169 67.009 -21.446 71.657 -26.19 C 73.537 -28.015 74.327 -28.106 99.84 -28.106 C 122.188 -28.106 127.132 -27.832 132.669 -26.464 C 146.711 -22.906 156.896 -13.053 160.852 0.448 C 162.632 6.741 162.632 11.212 160.556 17.871 C 157.292 28.818 149.283 37.393 137.614 42.501 L 131.088 45.329 L 59.099 45.786 L -12.789 46.241 L -6.561 53.54 C 4.911 66.858 20.237 78.262 35.565 84.83 C 45.058 88.844 58.506 92.857 66.516 94.134 C 78.778 95.96 109.135 94.865 115.266 92.4 C 116.354 91.945 119.914 90.942 123.078 90.029 C 138.306 85.924 155.018 76.711 168.564 64.851 C 185.276 50.256 196.846 31.098 202.384 8.839 C 205.548 -3.932 204.658 -32.94 200.802 -42.336 L 199.812 -44.526 L 136.724 -44.526 L 73.537 -44.526 L 71.657 -46.442 C 68.099 -50.181 60.682 -51.824 54.946 -50.181 Z" fill="url(#gradient-2)" style="" transform="matrix(1, 0, 0, 1, 148.407765, 271.620766)"></path>
  <path d="M 55.648 -36.227 L 59.579 -36.227 L 59.579 -29.381 L 55.648 -29.381 L 55.648 -36.227 Z M 60.601 -39.316 L 64.534 -39.316 L 64.534 -29.381 L 60.601 -29.381 L 60.601 -39.316 Z M 108.426 9.46 L 112.358 9.46 L 112.358 16.305 L 108.426 16.305 L 108.426 9.46 Z M 113.38 6.37 L 117.312 6.37 L 117.312 16.305 L 113.38 16.305 L 113.38 6.37 Z M 118.256 2.768 L 122.188 2.768 L 122.188 16.305 L 118.256 16.305 L 118.256 2.768 Z M 103.459 11.437 L 107.391 11.437 L 107.391 16.305 L 103.459 16.305 L 103.459 11.437 Z" fill="#ccf2ff" style="" transform="matrix(1, 0, 0, 1, 148.407765, 271.620766)"></path>
  <path d="M 65.477 -42.918 L 69.409 -42.918 L 69.409 -29.381 L 65.477 -29.381 L 65.477 -42.918 Z M 50.682 -34.248 L 54.613 -34.248 L 54.613 -29.381 L 50.682 -29.381 L 50.682 -34.248 Z" fill="#ccf2ff" style="" transform="matrix(1, 0, 0, 1, 148.407765, 271.620766)"></path>
</svg>